<svg xmlns="http://www.w3.org/2000/svg" xmlns:xlink="http://www.w3.org/1999/xlink" id="Livello_1" x="0px" y="0px" viewBox="0 0 784.2 146.4" style="enable-background:new 0 0 784.2 146.4;" xml:space="preserve"><style type="text/css">	.st0{fill:#FFFFFF;}</style><g>	<path class="st0" d="M707.4,94.9h-0.3c-0.5,0-0.9,0.4-0.9,0.9v10.1l-16.3-10.7c-0.2-0.1-0.4-0.2-0.6-0.2h-1.6  c-0.5,0-0.9,0.4-0.9,0.9v11.6c0,0.5,0.4,0.9,0.9,0.9h0.3c0.5,0,0.9-0.4,0.9-0.9v-10l16.5,10.7c0.2,0.1,0.4,0.2,0.6,0.2h1.4  c0.5,0,0.9-0.4,0.9-0.9V95.7C708.3,95.3,707.9,94.9,707.4,94.9z"></path>	<path class="st0" d="M555.5,94.5h-0.3c-0.5,0-0.9,0.4-0.9,0.9v6.6c0,6.5-16.9,6.8-16.9-0.2v-6.3c0-0.5-0.4-0.9-0.9-0.9h-0.3  c-0.5,0-0.9,0.4-0.9,0.9v6.3c0,9.5,21,9.1,21,0.2v-6.6C556.4,94.9,556,94.5,555.5,94.5z"></path>	<path class="st0" d="M517.5,106.2h-17.8V95.7c0-0.5-0.4-0.9-0.9-0.9h-0.3c-0.5,0-0.9,0.4-0.9,0.9v12.5h19.8c0.5,0,0.9-0.4,0.9-0.9  V107C518.4,106.6,518,106.2,517.5,106.2z"></path>	<path class="st0" d="M364.7,94.9h-19.1c-0.5,0-0.9,0.4-0.9,0.9v11.6c0,0.5,0.4,0.9,0.9,0.9h19.1c0.5,0,0.9-0.4,0.9-0.9v-0.3  c0-0.5-0.4-0.9-0.9-0.9h-17.9v-3.7h17.9c0.5,0,0.9-0.4,0.9-0.9v-0.3c0-0.5-0.4-0.9-0.9-0.9h-17.9v-3.7h17.9c0.5,0,0.9-0.4,0.9-0.9  v-0.3C365.6,95.3,365.2,94.9,364.7,94.9z"></path>	<path class="st0" d="M326.3,94.9h-18.7c-0.5,0-0.9,0.4-0.9,0.9V96c0,0.5,0.4,0.9,0.9,0.9h8.4v10.5c0,0.5,0.4,0.9,0.9,0.9h0.3  c0.5,0,0.9-0.4,0.9-0.9V96.9h8.4c0.5,0,0.9-0.4,0.9-0.9v-0.3C327.2,95.3,326.8,94.9,326.3,94.9z"></path>	<path class="st0" d="M288.3,94.9h-18.6c-0.5,0-0.9,0.4-0.9,0.9V96c0,0.5,0.4,0.9,0.9,0.9h8.3v9.4h-8.3c-0.5,0-0.9,0.4-0.9,0.9v0.3  c0,0.5,0.4,0.9,0.9,0.9h18.6c0.5,0,0.9-0.4,0.9-0.9v-0.3c0-0.5-0.4-0.9-0.9-0.9H280v-9.4h8.3c0.5,0,0.9-0.4,0.9-0.9v-0.3  C289.2,95.3,288.8,94.9,288.3,94.9z"></path>	<path class="st0" d="M250.5,94.9h-13.8c-1.9,0-4.7,0.2-5.9,1.9c-0.4,0.6-0.6,1.3-0.6,2s0.1,1.4,0.6,2c1.1,1.6,4,1.9,5.8,1.9h9.5  c1,0,2.4,0.1,3,1.1c0.1,0.2,0.2,0.5,0.2,0.7c0,0.3-0.1,0.5-0.2,0.7c-0.5,1-1.9,1.1-3,1.1h-15c-0.5,0-0.9,0.4-0.9,0.9v0.3  c0,0.5,0.4,0.9,0.9,0.9H245c1.9,0,4.7-0.2,5.8-1.9c0.4-0.6,0.6-1.3,0.6-2s-0.1-1.4-0.6-2c-1.1-1.6-4-1.9-5.8-1.9h-9.5  c-1,0-2.4-0.1-2.9-1.1c-0.1-0.2-0.2-0.5-0.2-0.7c0-0.3,0.1-0.5,0.2-0.7c0.5-1,1.9-1.1,3-1.1h15c0.5,0,0.9-0.4,0.9-0.9v-0.3  C251.3,95.3,250.9,94.9,250.5,94.9z"></path>	<path class="st0" d="M167.5,94.9H154c-0.5,0-0.9,0.4-0.9,0.9v11.6c0,0.5,0.4,0.9,0.9,0.9h0.3c0.5,0,0.9-0.4,0.9-0.9v-4.8h12.3  c1.8,0,4.6-0.2,5.7-1.9c0.4-0.6,0.5-1.3,0.5-2s-0.1-1.4-0.5-2C172.1,95.1,169.3,94.9,167.5,94.9z M171.5,99.4  c-0.5,1-1.9,1.1-2.9,1.1h-13.5v-3.7h13.5c1,0,2.4,0.1,2.9,1.1c0.1,0.2,0.2,0.5,0.2,0.7C171.7,99,171.6,99.2,171.5,99.4z"></path>	<path class="st0" d="M134.9,94.9h-2.6c-0.2,0-0.4,0.2-0.5,0.3l-6.7,5.3l-6.7-5.3c-0.2-0.1-0.4-0.3-0.5-0.3h-2.6  c-0.4,0-0.7,0.4-0.7,0.9v11.6c0,0.5,0.3,0.9,0.7,0.9h0.2c0.4,0,0.7-0.4,0.7-0.9V96l8.9,6.6L134,96v11.4c0,0.5,0.3,0.9,0.7,0.9h0.2  c0.4,0,0.7-0.4,0.7-0.9V95.7C135.6,95.3,135.3,94.9,134.9,94.9z"></path>	<path class="st0" d="M44.1,96.9h9.1c1.1,0,2.7,0.2,2.9,1.6c0.1,0.4,0.4,0.7,0.8,0.7h0.3c0.3,0,0.4-0.1,0.6-0.3  c0.2-0.2,0.2-0.4,0.2-0.7c-0.1-0.5-0.2-1-0.5-1.5c-1.1-1.6-3.7-1.9-5.4-1.9h-6.9c-10,0-10,13.3,0,13.3h6.9c1.7,0,4.4-0.2,5.4-1.9  c0.3-0.4,0.4-0.9,0.5-1.5c0-0.3,0-0.5-0.2-0.7s-0.4-0.3-0.6-0.3h-0.3c-0.4,0-0.7,0.3-0.8,0.7c-0.2,1.4-1.8,1.6-2.9,1.6h-9.1  C38.4,106.2,38.4,96.9,44.1,96.9z"></path>	<path class="st0" d="M86.3,94.7c-5.9,0-10.7,3.1-10.7,6.8c0,3.8,4.8,6.8,10.7,6.8c5.9,0,10.7-3.1,10.7-6.8  C97,97.8,92.2,94.7,86.3,94.7z M86.3,106.7c-4.5,0-8.1-2.3-8.1-5.2c0-2.9,3.6-5.2,8.1-5.2s8.1,2.3,8.1,5.2  C94.4,104.4,90.7,106.7,86.3,106.7z"></path>	<path class="st0" d="M202,94.7c-5.9,0-10.7,3.1-10.7,6.8c0,3.8,4.8,6.8,10.7,6.8s10.7-3.1,10.7-6.8C212.7,97.8,207.9,94.7,202,94.7  z M202,106.7c-4.5,0-8.1-2.3-8.1-5.2c0-2.9,3.6-5.2,8.1-5.2s8.1,2.3,8.1,5.2C210.1,104.4,206.4,106.7,202,106.7z"></path>	<path class="st0" d="M441.4,94.9h-13.8c-1.9,0-4.7,0.2-5.9,1.9c-0.4,0.6-0.6,1.3-0.6,2s0.1,1.4,0.6,2c1.1,1.6,4,1.9,5.8,1.9h9.5  c1,0,2.4,0.1,3,1.1c0.1,0.2,0.2,0.5,0.2,0.7c0,0.3-0.1,0.5-0.2,0.7c-0.5,1-1.9,1.1-3,1.1h-15c-0.5,0-0.9,0.4-0.9,0.9v0.3  c0,0.5,0.4,0.9,0.9,0.9h13.8c1.9,0,4.7-0.2,5.8-1.9c0.4-0.6,0.6-1.3,0.6-2s-0.1-1.4-0.6-2c-1.1-1.6-4-1.9-5.8-1.9h-9.5  c-1,0-2.4-0.1-2.9-1.1c-0.1-0.2-0.2-0.5-0.2-0.7c0-0.3,0.1-0.5,0.2-0.7c0.5-1,1.9-1.1,3-1.1h15c0.5,0,0.9-0.4,0.9-0.9v-0.3  C442.2,95.3,441.8,94.9,441.4,94.9z"></path>	<path class="st0" d="M470,94.7c-5.9,0-10.7,3.1-10.7,6.8c0,3.8,4.8,6.8,10.7,6.8s10.7-3.1,10.7-6.8C480.7,97.8,475.9,94.7,470,94.7  z M470,106.7c-4.5,0-8.1-2.3-8.1-5.2c0-2.9,3.6-5.2,8.1-5.2s8.1,2.3,8.1,5.2C478.1,104.4,474.4,106.7,470,106.7z"></path>	<path class="st0" d="M593,94.9h-18.7c-0.5,0-0.9,0.4-0.9,0.9V96c0,0.5,0.4,0.9,0.9,0.9h8.4v10.5c0,0.5,0.4,0.9,0.9,0.9h0.3  c0.5,0,0.9-0.4,0.9-0.9V96.9h8.4c0.5,0,0.9-0.4,0.9-0.9v-0.3C593.9,95.3,593.5,94.9,593,94.9z"></path>	<path class="st0" d="M630.4,94.9h-18.6c-0.5,0-0.9,0.4-0.9,0.9V96c0,0.5,0.4,0.9,0.9,0.9h8.3v9.4h-8.3c-0.5,0-0.9,0.4-0.9,0.9v0.3  c0,0.5,0.4,0.9,0.9,0.9h18.6c0.5,0,0.9-0.4,0.9-0.9v-0.3c0-0.5-0.4-0.9-0.9-0.9h-8.3v-9.4h8.3c0.5,0,0.9-0.4,0.9-0.9v-0.3  C631.2,95.3,630.8,94.9,630.4,94.9z"></path>	<path class="st0" d="M659,94.7c-5.9,0-10.7,3.1-10.7,6.8c0,3.8,4.8,6.8,10.7,6.8s10.7-3.1,10.7-6.8C669.7,97.8,664.9,94.7,659,94.7  z M659,106.7c-4.5,0-8.1-2.3-8.1-5.2c0-2.9,3.6-5.2,8.1-5.2s8.1,2.3,8.1,5.2C667.1,104.4,663.4,106.7,659,106.7z"></path>	<path class="st0" d="M745.5,94.9h-13.8c-1.9,0-4.7,0.2-5.9,1.9c-0.4,0.6-0.6,1.3-0.6,2s0.1,1.4,0.6,2c1.1,1.6,4,1.9,5.8,1.9h9.5  c1,0,2.4,0.1,3,1.1c0.1,0.2,0.2,0.5,0.2,0.7c0,0.3-0.1,0.5-0.2,0.7c-0.5,1-1.9,1.1-3,1.1h-15c-0.5,0-0.9,0.4-0.9,0.9v0.3  c0,0.5,0.4,0.9,0.9,0.9H740c1.9,0,4.7-0.2,5.8-1.9c0.4-0.6,0.6-1.3,0.6-2s-0.1-1.4-0.6-2c-1.1-1.6-4-1.9-5.8-1.9h-9.5  c-1,0-2.4-0.1-2.9-1.1c-0.1-0.2-0.2-0.5-0.2-0.7c0-0.3,0.1-0.5,0.2-0.7c0.5-1,1.9-1.1,3-1.1h15c0.5,0,0.9-0.4,0.9-0.9v-0.3  C746.4,95.3,746,94.9,745.5,94.9z"></path>	<path class="st0" d="M700.4,37.8L700.4,37.8c0.1,0.1,0.3,0.2,0.4,0.3c0.2,0.1,0.3,0.3,0.5,0.4c0.1,0.1,0.2,0.1,0.2,0.2  c0.2,0.1,0.3,0.3,0.5,0.4c0.1,0.1,0.2,0.1,0.2,0.2c0.2,0.1,0.3,0.3,0.5,0.4c0.1,0.1,0.2,0.1,0.2,0.2c0.2,0.1,0.3,0.3,0.5,0.4  c0.1,0.1,0.2,0.1,0.2,0.2c0.2,0.1,0.3,0.3,0.5,0.4c0.1,0.1,0.2,0.1,0.2,0.2c0.1,0.1,0.3,0.3,0.4,0.4c0.1,0.1,0.2,0.2,0.2,0.2  c0.1,0.1,0.3,0.3,0.4,0.4c0.1,0.1,0.2,0.2,0.3,0.3s0.2,0.2,0.4,0.4c0.1,0.1,0.2,0.2,0.3,0.3s0.2,0.2,0.3,0.3s0.2,0.2,0.3,0.4  c0.1,0.1,0.2,0.2,0.3,0.3s0.2,0.3,0.4,0.4c0.1,0.1,0.1,0.2,0.2,0.2c0.1,0.1,0.2,0.3,0.3,0.4c0.1,0.1,0.1,0.2,0.2,0.2  c0.1,0.2,0.2,0.3,0.3,0.5c0.1,0.1,0.1,0.2,0.2,0.2c0.1,0.2,0.2,0.3,0.3,0.5c0.1,0.1,0.1,0.1,0.2,0.2c0.1,0.2,0.2,0.3,0.3,0.5  c0,0.1,0.1,0.1,0.1,0.2c0.1,0.2,0.2,0.4,0.3,0.5c0,0.1,0.1,0.1,0.1,0.2c0.1,0.2,0.2,0.4,0.3,0.6c0,0.1,0.1,0.1,0.1,0.2  c0.1,0.2,0.2,0.4,0.3,0.6c0,0.1,0.1,0.1,0.1,0.2c0.1,0.2,0.2,0.4,0.3,0.6c0,0.1,0,0.1,0.1,0.2c0.1,0.2,0.2,0.4,0.3,0.6v0.1  c0.1,0.2,0.2,0.4,0.3,0.6v0.1c0.1,0.2,0.2,0.4,0.2,0.7v0.1c0.1,0.2,0.1,0.4,0.2,0.7v0.1c0.1,0.2,0.1,0.4,0.2,0.7v0.1  c0.1,0.2,0.1,0.5,0.2,0.7v0.1c0.1,0.2,0.1,0.5,0.1,0.7v0.1c0,0.2,0.1,0.5,0.1,0.7v0.1c0,0.2,0.1,0.5,0.1,0.7v0.1  c0,0.3,0.1,0.5,0.1,0.8v0.1c0,0.3,0,0.5,0,0.8l0,0c0,0.3,0,0.6,0,0.8c0,0.3,0,0.6,0,0.8l0,0c0,0.3,0,0.5,0,0.8l0,0  c0,0.3,0,0.5-0.1,0.8c0,0,0,0,0,0.1c0,0.3-0.1,0.5-0.1,0.8c0,0,0,0,0,0.1c0,0.2-0.1,0.5-0.1,0.7v0.1c0,0.2-0.1,0.5-0.2,0.7V65  c-0.1,0.2-0.1,0.5-0.2,0.7v0.1c-0.1,0.2-0.1,0.4-0.2,0.7v0.1c-0.1,0.2-0.1,0.4-0.2,0.6c0,0,0,0.1-0.1,0.1c-0.1,0.2-0.1,0.4-0.2,0.6  c0,0.1,0,0.1-0.1,0.2c-0.1,0.2-0.2,0.4-0.2,0.6c0,0.1-0.1,0.1-0.1,0.2c-0.1,0.2-0.2,0.4-0.3,0.6c0,0.1-0.1,0.1-0.1,0.2  c-0.1,0.2-0.2,0.4-0.3,0.6c0,0.1-0.1,0.1-0.1,0.2c-0.1,0.2-0.2,0.4-0.3,0.5c0,0.1-0.1,0.1-0.1,0.2c-0.1,0.2-0.2,0.3-0.3,0.5  c0,0.1-0.1,0.2-0.1,0.2c-0.1,0.2-0.2,0.3-0.3,0.5c-0.1,0.1-0.1,0.2-0.2,0.2c-0.1,0.2-0.2,0.3-0.3,0.5c-0.1,0.1-0.1,0.2-0.2,0.3  c-0.1,0.1-0.2,0.3-0.3,0.4s-0.1,0.2-0.2,0.3c-0.1,0.1-0.2,0.3-0.3,0.4s-0.2,0.2-0.3,0.4c-0.1,0.1-0.2,0.2-0.3,0.3  c-0.1,0.1-0.2,0.3-0.3,0.4s-0.1,0.2-0.2,0.3c-0.1,0.2-0.3,0.3-0.4,0.5c-0.1,0.1-0.1,0.1-0.2,0.2c-0.1,0.2-0.3,0.3-0.4,0.5  c-0.1,0.1-0.1,0.1-0.2,0.2c-0.2,0.2-0.3,0.3-0.5,0.5l-0.1,0.1c-0.2,0.2-0.3,0.3-0.5,0.5l-0.1,0.1c-0.2,0.2-0.4,0.4-0.6,0.5  l-0.1,0.1c-0.2,0.2-0.4,0.4-0.6,0.5l-0.1,0.1c-0.2,0.2-0.4,0.4-0.6,0.5l-0.1,0.1c-0.2,0.2-0.4,0.4-0.7,0.5l0,0  c-0.2,0.2-0.5,0.4-0.7,0.6l0,0c-0.2,0.2-0.5,0.4-0.8,0.6l0,0c-0.3,0.2-0.5,0.4-0.8,0.5h46.6V37.8H700.4z"></path>	<rect x="174.1" y="37.8" class="st0" width="82.3" height="44.9"></rect>	<path class="st0" d="M518.6,37.8h-73.4v17.5h73.4C525.5,55.3,526.1,37.8,518.6,37.8z"></path>	<rect x="37.8" y="37.8" class="st0" width="39.1" height="44.9"></rect>	<polygon class="st0" points="165,37.8 99.6,37.8 165,79.3  "></polygon>	<polygon class="st0" points="483.9,64.6 445.2,64.6 445.2,82.7 512.3,82.7  "></polygon>	<path class="st0" d="M436.1,37.8H265.5v17.5h85.3c4.5,0,4.5,9.3,0,9.3h-85.3v18h170.6V37.8z"></path>	<polygon class="st0" points="85.6,82.7 152.9,82.7 85.6,40.3  "></polygon>	<path class="st0" d="M629.2,82.1L629.2,82.1c-0.3-0.2-0.5-0.4-0.8-0.6l0,0c-0.2-0.2-0.5-0.4-0.7-0.5h-0.1c-0.2-0.2-0.5-0.4-0.7-0.5  l-0.1-0.1c-0.2-0.2-0.4-0.4-0.6-0.5l-0.1-0.1c-0.2-0.2-0.4-0.4-0.6-0.5l-0.1-0.1c-0.2-0.2-0.4-0.4-0.6-0.5l-0.1-0.1  c-0.2-0.2-0.3-0.3-0.5-0.5l-0.1-0.1c-0.2-0.2-0.3-0.3-0.5-0.5c-0.1-0.1-0.1-0.1-0.2-0.2c-0.1-0.2-0.3-0.3-0.4-0.5  c-0.1-0.1-0.1-0.1-0.2-0.2c-0.1-0.1-0.3-0.3-0.4-0.5c-0.1-0.1-0.1-0.2-0.2-0.3c-0.1-0.1-0.2-0.3-0.3-0.4s-0.2-0.2-0.3-0.3  c-0.1-0.1-0.2-0.2-0.3-0.4c-0.1-0.1-0.2-0.3-0.3-0.4s-0.1-0.2-0.2-0.3c-0.1-0.1-0.2-0.3-0.3-0.4s-0.1-0.2-0.2-0.3  c-0.1-0.2-0.2-0.3-0.3-0.5c-0.1-0.1-0.1-0.2-0.2-0.2c-0.1-0.2-0.2-0.3-0.3-0.5c0-0.1-0.1-0.2-0.1-0.2c-0.1-0.2-0.2-0.3-0.3-0.5  c0-0.1-0.1-0.1-0.1-0.2c-0.1-0.2-0.2-0.4-0.3-0.5c0-0.1-0.1-0.1-0.1-0.2c-0.1-0.2-0.2-0.4-0.3-0.6c0-0.1-0.1-0.1-0.1-0.2  c-0.1-0.2-0.2-0.4-0.3-0.6c0-0.1-0.1-0.1-0.1-0.2c-0.1-0.2-0.2-0.4-0.2-0.6c0-0.1,0-0.1-0.1-0.2c-0.1-0.2-0.2-0.4-0.2-0.6  c0,0,0-0.1-0.1-0.1c-0.1-0.2-0.1-0.4-0.2-0.6v-0.1c-0.1-0.2-0.1-0.4-0.2-0.7v-0.1c-0.1-0.2-0.1-0.5-0.2-0.7v-0.1  c-0.1-0.2-0.1-0.5-0.2-0.7v-0.1c0-0.2-0.1-0.5-0.1-0.7c0,0,0,0,0-0.1c0-0.3-0.1-0.5-0.1-0.8c0,0,0,0,0-0.1c0-0.3-0.1-0.5-0.1-0.8  l0,0c0-0.3,0-0.5,0-0.8l0,0c0-0.3,0-0.6,0-0.8c0-0.3,0-0.6,0-0.8l0,0c0-0.3,0-0.5,0-0.8v-0.1c0-0.3,0-0.5,0.1-0.8v-0.1  c0-0.2,0.1-0.5,0.1-0.7v-0.1c0-0.2,0.1-0.5,0.1-0.7V56c0-0.2,0.1-0.5,0.1-0.7v-0.1c0.1-0.2,0.1-0.5,0.2-0.7v-0.1  c0.1-0.2,0.1-0.4,0.2-0.7v-0.1c0.1-0.2,0.1-0.4,0.2-0.7v-0.1c0.1-0.2,0.2-0.4,0.2-0.7V52c0.1-0.2,0.2-0.4,0.3-0.6v-0.1  c0.1-0.2,0.2-0.4,0.3-0.6c0-0.1,0-0.1,0.1-0.2c0.1-0.2,0.2-0.4,0.3-0.6c0-0.1,0.1-0.1,0.1-0.2c0.1-0.2,0.2-0.4,0.3-0.6  c0-0.1,0.1-0.1,0.1-0.2c0.1-0.2,0.2-0.4,0.3-0.6c0-0.1,0.1-0.1,0.1-0.2c0.1-0.2,0.2-0.4,0.3-0.5c0-0.1,0.1-0.1,0.1-0.2  c0.1-0.2,0.2-0.3,0.3-0.5c0.1-0.1,0.1-0.1,0.2-0.2c0.1-0.2,0.2-0.3,0.3-0.5c0.1-0.1,0.1-0.2,0.2-0.2c0.1-0.2,0.2-0.3,0.3-0.5  c0.1-0.1,0.1-0.2,0.2-0.2c0.1-0.1,0.2-0.3,0.3-0.4c0.1-0.1,0.1-0.2,0.2-0.2c0.1-0.1,0.2-0.3,0.4-0.4c0.1-0.1,0.2-0.2,0.3-0.3  s0.2-0.2,0.3-0.4c0.1-0.1,0.2-0.2,0.3-0.3s0.2-0.2,0.3-0.3s0.2-0.2,0.4-0.4c0.1-0.1,0.2-0.2,0.3-0.3s0.3-0.3,0.4-0.4  c0.1-0.1,0.2-0.2,0.2-0.2c0.1-0.1,0.3-0.3,0.4-0.4c0.1-0.1,0.2-0.1,0.2-0.2c0.2-0.1,0.3-0.3,0.5-0.4c0.1-0.1,0.2-0.1,0.2-0.2  c0.2-0.1,0.3-0.3,0.5-0.4c0.1-0.1,0.2-0.1,0.2-0.2c0.2-0.1,0.3-0.3,0.5-0.4c0.1-0.1,0.2-0.1,0.2-0.2c0.2-0.1,0.3-0.3,0.5-0.4  c0.1-0.1,0.2-0.1,0.3-0.2c0.2-0.1,0.3-0.3,0.5-0.4c0.1-0.1,0.3-0.2,0.4-0.3l0,0H531c6.7,12.5-4.1,26.9-13,26.9h-17.4l28.8,18h100  C629.7,82.5,629.5,82.3,629.2,82.1z"></path>	<path class="st0" d="M687.6,79.4c0.2-0.1,0.4-0.2,0.6-0.3h0.1c0.2-0.1,0.4-0.2,0.6-0.3l0,0c0.8-0.4,1.6-0.7,2.3-1.1l0.1-0.1  c0.2-0.1,0.3-0.2,0.5-0.3l0.1-0.1c0.7-0.4,1.4-0.8,2-1.2l0.1-0.1c0.1-0.1,0.3-0.2,0.4-0.3c0.1,0,0.1-0.1,0.2-0.1  c0.1-0.1,0.3-0.2,0.4-0.3c0.1,0,0.1-0.1,0.2-0.1c0.4-0.3,0.8-0.6,1.2-0.9c0.1,0,0.1-0.1,0.2-0.1c0.1-0.1,0.2-0.2,0.3-0.3  c0.1-0.1,0.1-0.1,0.2-0.2c0.1-0.1,0.2-0.2,0.3-0.3c0.1-0.1,0.1-0.1,0.2-0.2c0.1-0.1,0.2-0.2,0.3-0.3c0.1-0.1,0.1-0.1,0.2-0.2  c0.2-0.2,0.3-0.3,0.5-0.5c0.1-0.1,0.1-0.1,0.2-0.2c0.1-0.1,0.2-0.2,0.2-0.2c0.1-0.1,0.1-0.1,0.2-0.2c0.1-0.1,0.2-0.2,0.2-0.2  c0.1-0.1,0.1-0.1,0.2-0.2c0.1-0.1,0.1-0.2,0.2-0.2c0.1-0.1,0.1-0.2,0.2-0.2c0.1-0.1,0.1-0.1,0.2-0.2c0.1-0.1,0.2-0.2,0.3-0.3  c0.1-0.1,0.1-0.2,0.2-0.3c0.1-0.1,0.2-0.2,0.2-0.3c0.1-0.1,0.1-0.1,0.2-0.2c0.1-0.1,0.1-0.2,0.2-0.3c0.1-0.1,0.1-0.1,0.2-0.2  c0.1-0.1,0.1-0.2,0.2-0.3c0-0.1,0.1-0.1,0.1-0.2c0.1-0.1,0.1-0.2,0.2-0.3c0-0.1,0.1-0.1,0.1-0.2c0.1-0.2,0.2-0.3,0.3-0.5  c0-0.1,0.1-0.1,0.1-0.2c0.1-0.1,0.1-0.2,0.2-0.3c0-0.1,0.1-0.1,0.1-0.2c0.1-0.1,0.1-0.2,0.2-0.3c0-0.1,0.1-0.1,0.1-0.2  c0.1-0.1,0.1-0.2,0.2-0.3c0-0.1,0.1-0.1,0.1-0.2c0.1-0.2,0.1-0.3,0.2-0.5c0,0,0,0,0-0.1c0.1-0.2,0.1-0.3,0.2-0.5  c0-0.1,0-0.1,0.1-0.2c0-0.1,0.1-0.2,0.1-0.4c0-0.1,0-0.1,0.1-0.2c0-0.1,0.1-0.2,0.1-0.4c0-0.1,0-0.1,0.1-0.2c0-0.1,0.1-0.3,0.1-0.4  v-0.1c0-0.2,0.1-0.4,0.1-0.5v-0.1c0-0.1,0-0.3,0.1-0.4c0-0.1,0-0.1,0-0.2c0-0.1,0-0.2,0-0.4c0-0.1,0-0.1,0-0.2c0-0.1,0-0.3,0-0.4  c0-0.1,0-0.1,0-0.2c0-0.2,0-0.4,0-0.6c0-0.2,0-0.4,0-0.6c0-0.1,0-0.1,0-0.2c0-0.1,0-0.3,0-0.4c0-0.1,0-0.1,0-0.2c0-0.1,0-0.3,0-0.4  c0-0.1,0-0.1,0-0.2c0-0.2-0.1-0.4-0.1-0.5v-0.1c0-0.1-0.1-0.3-0.1-0.4c0-0.1,0-0.1,0-0.2c0-0.1-0.1-0.2-0.1-0.4c0-0.1,0-0.1,0-0.2  c0-0.1-0.1-0.3-0.1-0.4v-0.1c-0.1-0.2-0.1-0.3-0.2-0.5c0,0,0-0.1-0.1-0.1c0-0.1-0.1-0.2-0.1-0.4c0-0.1,0-0.1-0.1-0.2  c0-0.1-0.1-0.2-0.1-0.3s-0.1-0.1-0.1-0.2c-0.1-0.1-0.1-0.3-0.2-0.4v-0.1c-0.1-0.2-0.2-0.3-0.2-0.5c0-0.1-0.1-0.1-0.1-0.2  c-0.1-0.1-0.1-0.2-0.2-0.3c0-0.1-0.1-0.1-0.1-0.2c-0.1-0.1-0.1-0.2-0.2-0.3c0-0.1-0.1-0.1-0.1-0.2c-0.1-0.1-0.2-0.3-0.3-0.4  c0-0.1-0.1-0.1-0.1-0.2c-0.1-0.1-0.2-0.2-0.2-0.3s-0.1-0.1-0.2-0.2c-0.1-0.1-0.1-0.2-0.2-0.3c-0.1-0.1-0.1-0.1-0.2-0.2  c-0.1-0.1-0.1-0.2-0.2-0.3c-0.1-0.1-0.1-0.1-0.2-0.2c-0.1-0.1-0.2-0.3-0.4-0.4c-0.1-0.1-0.1-0.1-0.2-0.2c-0.1-0.1-0.1-0.2-0.2-0.2  c-0.1-0.1-0.1-0.2-0.2-0.2c-0.1-0.1-0.1-0.1-0.2-0.2c-0.1-0.1-0.1-0.2-0.2-0.2c-0.1-0.1-0.1-0.1-0.2-0.2c-0.1-0.1-0.3-0.3-0.4-0.4  c-0.1-0.1-0.2-0.1-0.2-0.2c-0.1-0.1-0.2-0.2-0.3-0.2c-0.1-0.1-0.1-0.1-0.2-0.2c-0.1-0.1-0.2-0.2-0.3-0.2c-0.1-0.1-0.1-0.1-0.2-0.2  c-0.1-0.1-0.2-0.2-0.3-0.2s-0.1-0.1-0.2-0.1c-0.2-0.2-0.4-0.3-0.6-0.5l-0.1-0.1c-0.1-0.1-0.2-0.2-0.3-0.3c-0.1,0-0.1-0.1-0.2-0.1  c-0.1-0.1-0.2-0.2-0.4-0.3c-0.1,0-0.1-0.1-0.2-0.1c-0.4-0.3-0.9-0.6-1.3-0.9c0,0-0.1,0-0.1-0.1c-0.1-0.1-0.3-0.2-0.4-0.3l-0.1-0.1  c-0.1-0.1-0.3-0.2-0.4-0.3c0,0-0.1,0-0.1-0.1c-0.5-0.3-1-0.6-1.5-0.8h-0.1c-0.2-0.1-0.3-0.2-0.5-0.3h-0.1c-0.7-0.4-1.5-0.7-2.3-1.1  h-0.1c-0.2-0.1-0.4-0.2-0.6-0.2l0,0c-0.8-0.3-1.6-0.7-2.5-1l0,0c-1.1-0.4-2.2-0.7-3.3-1l0,0c-1.1-0.3-2.3-0.6-3.5-0.9h-26.5  c-1.2,0.3-2.4,0.5-3.5,0.9l0,0c-1.1,0.3-2.3,0.7-3.3,1l0,0c-0.9,0.3-1.7,0.6-2.5,1l0,0c-0.2,0.1-0.4,0.2-0.6,0.2h-0.1  c-0.8,0.3-1.5,0.7-2.3,1.1h-0.1c-0.2,0.1-0.3,0.2-0.5,0.3h-0.1c-0.5,0.3-1,0.6-1.5,0.8c0,0-0.1,0-0.1,0.1c-0.1,0.1-0.3,0.2-0.4,0.3  l-0.1,0.1c-0.1,0.1-0.3,0.2-0.4,0.3c0,0-0.1,0-0.1,0.1c-0.4,0.3-0.9,0.6-1.3,0.9c-0.1,0-0.1,0.1-0.2,0.1c-0.1,0.1-0.2,0.2-0.4,0.3  c-0.1,0-0.1,0.1-0.2,0.1c-0.1,0.1-0.2,0.2-0.3,0.3l-0.1,0.1c-0.2,0.2-0.4,0.3-0.6,0.5c-0.1,0-0.1,0.1-0.2,0.1  c-0.1,0.1-0.2,0.2-0.3,0.2c-0.1,0.1-0.1,0.1-0.2,0.2c-0.1,0.1-0.2,0.2-0.3,0.2c-0.1,0.1-0.1,0.1-0.2,0.2c-0.1,0.1-0.2,0.2-0.3,0.2  c-0.1,0.1-0.2,0.1-0.2,0.2c-0.1,0.1-0.3,0.3-0.4,0.4c-0.1,0.1-0.1,0.1-0.2,0.2c-0.1,0.1-0.1,0.2-0.2,0.2c-0.1,0.1-0.1,0.1-0.2,0.2  c-0.1,0.1-0.1,0.1-0.2,0.2c-0.1,0.1-0.1,0.2-0.2,0.2c-0.1,0.1-0.1,0.1-0.2,0.2c-0.1,0.1-0.2,0.3-0.4,0.4c-0.1,0.1-0.1,0.1-0.2,0.2  c-0.1,0.1-0.1,0.2-0.2,0.3c-0.1,0.1-0.1,0.1-0.2,0.2c-0.1,0.1-0.1,0.2-0.2,0.3c0,0.1-0.1,0.1-0.1,0.2c-0.1,0.1-0.2,0.2-0.2,0.3  s-0.1,0.1-0.1,0.2c-0.1,0.1-0.2,0.3-0.3,0.4c0,0.1-0.1,0.1-0.1,0.2c-0.1,0.1-0.1,0.2-0.2,0.3c0,0.1-0.1,0.1-0.1,0.2  c-0.1,0.1-0.1,0.2-0.2,0.3c0,0.1-0.1,0.1-0.1,0.2c-0.1,0.2-0.2,0.3-0.2,0.5v0.1c-0.1,0.1-0.1,0.3-0.2,0.4c0,0.1-0.1,0.1-0.1,0.2  c0,0.1-0.1,0.2-0.1,0.3s-0.1,0.1-0.1,0.2c0,0.1-0.1,0.2-0.1,0.4c0,0,0,0.1-0.1,0.1c-0.1,0.2-0.1,0.3-0.2,0.5v0.1  c0,0.1-0.1,0.3-0.1,0.4c0,0.1,0,0.1,0,0.2c0,0.1-0.1,0.2-0.1,0.4c0,0.1,0,0.1,0,0.2c0,0.1-0.1,0.3-0.1,0.4v0.1  c0,0.2-0.1,0.4-0.1,0.5s0,0.1,0,0.2c0,0.1,0,0.3,0,0.4c0,0.1,0,0.1,0,0.2c0,0.1,0,0.3,0,0.4c0,0.1,0,0.1,0,0.2c0,0.2,0,0.4,0,0.6  c0,0.2,0,0.4,0,0.6c0,0.1,0,0.1,0,0.2c0,0.1,0,0.3,0,0.4c0,0.1,0,0.1,0,0.2c0,0.1,0,0.2,0,0.4c0,0.1,0,0.1,0,0.2  c0,0.1,0,0.3,0.1,0.4v0.1c0,0.2,0.1,0.4,0.1,0.5v0.1c0,0.1,0.1,0.3,0.1,0.4c0,0.1,0,0.1,0.1,0.2c0,0.1,0.1,0.2,0.1,0.4  c0,0.1,0,0.1,0.1,0.2c0,0.1,0.1,0.2,0.1,0.4c0,0.1,0,0.1,0.1,0.2c0.1,0.2,0.1,0.3,0.2,0.5c0,0,0,0,0,0.1c0.1,0.2,0.1,0.3,0.2,0.5  c0,0.1,0.1,0.1,0.1,0.2s0.1,0.2,0.2,0.3c0,0.1,0.1,0.1,0.1,0.2c0.1,0.1,0.1,0.2,0.2,0.3c0,0.1,0.1,0.1,0.1,0.2  c0.1,0.1,0.1,0.2,0.2,0.3c0,0.1,0.1,0.1,0.1,0.2c0.1,0.2,0.2,0.3,0.3,0.5c0,0.1,0.1,0.1,0.1,0.2c0.1,0.1,0.1,0.2,0.2,0.3  c0,0.1,0.1,0.1,0.1,0.2c0.1,0.1,0.1,0.2,0.2,0.3c0.1,0.1,0.1,0.1,0.2,0.2c0.1,0.1,0.1,0.2,0.2,0.3c0.1,0.1,0.1,0.1,0.2,0.2  c0.1,0.1,0.1,0.2,0.2,0.3c0.1,0.1,0.2,0.2,0.2,0.3c0.1,0.1,0.2,0.2,0.3,0.3c0.1,0.1,0.1,0.1,0.2,0.2c0.1,0.1,0.1,0.2,0.2,0.2  c0.1,0.1,0.1,0.2,0.2,0.2c0.1,0.1,0.1,0.1,0.2,0.2c0.1,0.1,0.2,0.2,0.2,0.2c0.1,0.1,0.1,0.1,0.2,0.2c0.1,0.1,0.2,0.2,0.2,0.2  c0.1,0.1,0.1,0.1,0.2,0.2c0.2,0.2,0.3,0.3,0.5,0.5c0.1,0.1,0.1,0.1,0.2,0.2c0.1,0.1,0.2,0.2,0.3,0.3c0.1,0.1,0.1,0.1,0.2,0.2  c0.1,0.1,0.2,0.2,0.3,0.3c0.1,0.1,0.1,0.1,0.2,0.2c0.1,0.1,0.2,0.2,0.3,0.3l0.1,0.1c0.4,0.3,0.8,0.6,1.2,0.9c0.1,0,0.1,0.1,0.2,0.1  c0.1,0.1,0.3,0.2,0.4,0.3c0.1,0,0.1,0.1,0.2,0.1c0.1,0.1,0.3,0.2,0.4,0.3l0.1,0.1c0.7,0.4,1.3,0.8,2,1.2l0.1,0.1  c0.2,0.1,0.3,0.2,0.5,0.3l0.1,0.1c0.9,0.5,1.9,1,2.9,1.4h0.1c0.2,0.1,0.4,0.2,0.6,0.3l0,0c1.1,0.4,2.2,0.9,3.3,1.2l0,0  c2.5,0.8,5.2,1.5,8,2l0,0h22.8l0,0c2.8-0.5,5.5-1.2,8-2l0,0C685.5,80.3,686.6,79.8,687.6,79.4L687.6,79.4z"></path></g></svg>